<svg width="984" height="205" viewBox="0 0 984 205" fill="none" xmlns="http://www.w3.org/2000/svg">
<path d="M242.325 162.25C234.125 162.25 227.15 160.425 221.4 156.775C215.7 153.075 211.35 148 208.35 141.55C205.35 135.1 203.8 127.75 203.7 119.5C203.8 111.05 205.375 103.625 208.425 97.225C211.525 90.775 215.95 85.75 221.7 82.15C227.45 78.55 234.375 76.75 242.475 76.75C251.025 76.75 258.375 78.85 264.525 83.05C270.725 87.25 274.875 93 276.975 100.3L263.775 104.275C262.075 99.575 259.3 95.925 255.45 93.325C251.65 90.725 247.275 89.425 242.325 89.425C236.775 89.425 232.2 90.725 228.6 93.325C225 95.875 222.325 99.425 220.575 103.975C218.825 108.475 217.925 113.65 217.875 119.5C217.975 128.5 220.05 135.775 224.1 141.325C228.2 146.825 234.275 149.575 242.325 149.575C247.625 149.575 252.025 148.375 255.525 145.975C259.025 143.525 261.675 140 263.475 135.4L276.975 138.925C274.175 146.475 269.8 152.25 263.85 156.25C257.9 160.25 250.725 162.25 242.325 162.25ZM291.584 160V49.75H304.934V160H291.584ZM362.538 162.25C354.588 162.25 347.638 160.5 341.688 157C335.788 153.45 331.188 148.525 327.888 142.225C324.588 135.875 322.938 128.475 322.938 120.025C322.938 111.175 324.563 103.525 327.813 97.075C331.063 90.575 335.588 85.575 341.388 82.075C347.238 78.525 354.088 76.75 361.938 76.75C370.088 76.75 377.013 78.625 382.713 82.375C388.463 86.125 392.763 91.475 395.613 98.425C398.513 105.375 399.763 113.65 399.363 123.25H385.863V118.45C385.713 108.5 383.688 101.075 379.788 96.175C375.888 91.225 370.088 88.75 362.388 88.75C354.138 88.75 347.863 91.4 343.563 96.7C339.263 102 337.113 109.6 337.113 119.5C337.113 129.05 339.263 136.45 343.563 141.7C347.863 146.95 353.988 149.575 361.938 149.575C367.288 149.575 371.938 148.35 375.888 145.9C379.838 143.45 382.938 139.925 385.188 135.325L398.013 139.75C394.863 146.9 390.113 152.45 383.763 156.4C377.463 160.3 370.388 162.25 362.538 162.25ZM332.613 123.25V112.525H392.463V123.25H332.613ZM416.061 160V79H427.986V98.575L426.036 96.025C426.986 93.525 428.211 91.225 429.711 89.125C431.261 87.025 432.986 85.3 434.886 83.95C436.986 82.25 439.361 80.95 442.011 80.05C444.661 79.15 447.361 78.625 450.111 78.475C452.861 78.275 455.436 78.45 457.836 79V91.525C455.036 90.775 451.961 90.575 448.611 90.925C445.261 91.275 442.161 92.5 439.311 94.6C436.711 96.45 434.686 98.7 433.236 101.35C431.836 104 430.861 106.875 430.311 109.975C429.761 113.025 429.486 116.15 429.486 119.35V160H416.061ZM473.518 64.675V50.875H486.868V64.675H473.518ZM473.518 160V79H486.868V160H473.518ZM543.872 162.25C535.822 162.25 528.872 160.425 523.022 156.775C517.222 153.125 512.747 148.075 509.597 141.625C506.447 135.175 504.872 127.775 504.872 119.425C504.872 110.925 506.472 103.475 509.672 97.075C512.872 90.675 517.397 85.7 523.247 82.15C529.097 78.55 535.972 76.75 543.872 76.75C551.972 76.75 558.947 78.575 564.797 82.225C570.647 85.825 575.122 90.85 578.222 97.3C581.372 103.7 582.947 111.075 582.947 119.425C582.947 127.875 581.372 135.325 578.222 141.775C575.072 148.175 570.572 153.2 564.722 156.85C558.872 160.45 551.922 162.25 543.872 162.25ZM543.872 149.575C552.272 149.575 558.522 146.775 562.622 141.175C566.722 135.575 568.772 128.325 568.772 119.425C568.772 110.275 566.697 103 562.547 97.6C558.397 92.15 552.172 89.425 543.872 89.425C538.222 89.425 533.572 90.7 529.922 93.25C526.272 95.8 523.547 99.325 521.747 103.825C519.947 108.325 519.047 113.525 519.047 119.425C519.047 128.525 521.147 135.825 525.347 141.325C529.547 146.825 535.722 149.575 543.872 149.575ZM662.564 162.25C654.464 162.25 647.639 160.45 642.089 156.85C636.539 153.2 632.314 148.175 629.414 141.775C626.564 135.325 625.089 127.9 624.989 119.5C625.089 110.95 626.589 103.475 629.489 97.075C632.439 90.625 636.689 85.625 642.239 82.075C647.789 78.525 654.589 76.75 662.639 76.75C670.489 76.75 677.389 78.65 683.339 82.45C689.339 86.2 693.489 91.375 695.789 97.975L687.389 101.05C685.339 96 682.114 92.1 677.714 89.35C673.314 86.55 668.264 85.15 662.564 85.15C656.164 85.15 650.889 86.625 646.739 89.575C642.589 92.475 639.489 96.5 637.439 101.65C635.389 106.8 634.314 112.75 634.214 119.5C634.364 129.85 636.789 138.175 641.489 144.475C646.239 150.725 653.264 153.85 662.564 153.85C668.314 153.85 673.289 152.525 677.489 149.875C681.739 147.225 684.989 143.375 687.239 138.325L695.789 141.25C692.639 148.1 688.239 153.325 682.589 156.925C676.939 160.475 670.264 162.25 662.564 162.25ZM742.548 162.25C734.498 162.25 727.673 160.425 722.073 156.775C716.473 153.125 712.198 148.075 709.248 141.625C706.298 135.175 704.823 127.75 704.823 119.35C704.823 110.9 706.323 103.475 709.323 97.075C712.323 90.625 716.623 85.625 722.223 82.075C727.873 78.525 734.648 76.75 742.548 76.75C750.598 76.75 757.423 78.575 763.023 82.225C768.673 85.825 772.948 90.825 775.848 97.225C778.798 103.625 780.273 111 780.273 119.35C780.273 127.9 778.798 135.4 775.848 141.85C772.898 148.25 768.598 153.25 762.948 156.85C757.298 160.45 750.498 162.25 742.548 162.25ZM742.548 153.85C752.098 153.85 759.223 150.65 763.923 144.25C768.673 137.85 771.048 129.55 771.048 119.35C771.048 108.95 768.673 100.65 763.923 94.45C759.173 88.25 752.048 85.15 742.548 85.15C736.098 85.15 730.773 86.625 726.573 89.575C722.373 92.475 719.223 96.5 717.123 101.65C715.073 106.75 714.048 112.65 714.048 119.35C714.048 129.75 716.448 138.1 721.248 144.4C726.098 150.7 733.198 153.85 742.548 153.85ZM827.899 162.25C820.249 162.25 813.774 160.375 808.474 156.625C803.224 152.825 799.199 147.7 796.399 141.25C793.649 134.75 792.274 127.45 792.274 119.35C792.274 111.35 793.649 104.125 796.399 97.675C799.149 91.225 803.099 86.125 808.249 82.375C813.449 78.625 819.724 76.75 827.074 76.75C834.624 76.75 840.999 78.6 846.199 82.3C851.399 86 855.324 91.075 857.974 97.525C860.624 103.925 861.949 111.2 861.949 119.35C861.949 127.45 860.624 134.725 857.974 141.175C855.324 147.625 851.474 152.75 846.424 156.55C841.374 160.35 835.199 162.25 827.899 162.25ZM828.424 154C834.474 154 839.499 152.5 843.499 149.5C847.549 146.45 850.549 142.325 852.499 137.125C854.499 131.875 855.499 125.95 855.499 119.35C855.499 112.7 854.499 106.775 852.499 101.575C850.499 96.375 847.499 92.325 843.499 89.425C839.499 86.475 834.524 85 828.574 85C822.424 85 817.349 86.525 813.349 89.575C809.349 92.575 806.374 96.675 804.424 101.875C802.474 107.025 801.499 112.85 801.499 119.35C801.499 125.9 802.499 131.8 804.499 137.05C806.549 142.25 809.549 146.375 813.499 149.425C817.499 152.475 822.474 154 828.424 154ZM855.499 160V97.6H854.749V52H863.374V160H855.499ZM917.747 162.25C909.997 162.25 903.297 160.525 897.647 157.075C891.997 153.575 887.622 148.65 884.522 142.3C881.422 135.9 879.872 128.35 879.872 119.65C879.872 110.8 881.397 103.175 884.447 96.775C887.547 90.325 891.897 85.375 897.497 81.925C903.147 78.475 909.847 76.75 917.597 76.75C925.447 76.75 932.147 78.55 937.697 82.15C943.297 85.7 947.547 90.85 950.447 97.6C953.397 104.35 954.797 112.475 954.647 121.975H945.647V118.975C945.397 107.875 942.897 99.425 938.147 93.625C933.397 87.825 926.597 84.925 917.747 84.925C908.597 84.925 901.522 87.95 896.522 94C891.572 100 889.097 108.5 889.097 119.5C889.097 130.4 891.572 138.85 896.522 144.85C901.522 150.85 908.547 153.85 917.597 153.85C923.847 153.85 929.297 152.4 933.947 149.5C938.647 146.55 942.372 142.35 945.122 136.9L952.922 140.35C949.672 147.35 944.972 152.75 938.822 156.55C932.672 160.35 925.647 162.25 917.747 162.25ZM885.797 121.975V114.175H949.772V121.975H885.797Z" fill="black"/>
<g filter="url(#filter0_d_334_14)">
<rect x="4.21826" y="34" width="141.281" height="141.281" rx="20" fill="#0A1B33"/>
<rect x="4.4819" y="34.2636" width="140.753" height="140.753" rx="19.7364" stroke="black" stroke-width="0.52728"/>
</g>
<path d="M68.117 120.023C69.6363 116.189 73.3427 113.671 77.467 113.671H78.766C82.8904 113.671 86.5967 116.189 88.116 120.023L98.6705 146.66C101.286 153.262 96.4217 160.422 89.3205 160.422H66.9125C59.8113 160.422 54.9466 153.262 57.5625 146.66L68.117 120.023Z" fill="#BFDBF7"/>
<path d="M83.1263 50.0621C89.5511 50.032 92.6225 58.5859 88.3987 63.4272C84.1664 68.2781 81.2057 73.3143 83.3787 76.4121C84.793 78.4285 87.2188 79.6401 90.0118 80.3337C96.0482 81.8327 100.573 89.5295 96.4056 94.147C90.471 100.723 83.8696 106.978 80.1205 106.978C65.4576 106.978 54.7441 88.3736 54.7441 73.2615C54.7441 58.1494 57.4162 50.1025 72.0791 50.1025C73.957 50.1025 78.2827 50.0848 83.1263 50.0621Z" fill="#BFDBF7"/>
<defs>
<filter id="filter0_d_334_14" x="2.09808e-05" y="34" width="149.717" height="149.717" filterUnits="userSpaceOnUse" color-interpolation-filters="sRGB">
<feFlood flood-opacity="0" result="BackgroundImageFix"/>
<feColorMatrix in="SourceAlpha" type="matrix" values="0 0 0 0 0 0 0 0 0 0 0 0 0 0 0 0 0 0 127 0" result="hardAlpha"/>
<feOffset dy="4.21824"/>
<feGaussianBlur stdDeviation="2.10912"/>
<feComposite in2="hardAlpha" operator="out"/>
<feColorMatrix type="matrix" values="0 0 0 0 0 0 0 0 0 0 0 0 0 0 0 0 0 0 0.25 0"/>
<feBlend mode="normal" in2="BackgroundImageFix" result="effect1_dropShadow_334_14"/>
<feBlend mode="normal" in="SourceGraphic" in2="effect1_dropShadow_334_14" result="shape"/>
</filter>
</defs>
</svg>
