<svg width="940" height="205" viewBox="0 0 940 205" fill="none" xmlns="http://www.w3.org/2000/svg">
<path d="M207.639 162.25C199.439 162.25 192.464 160.425 186.714 156.775C181.014 153.075 176.664 148 173.664 141.55C170.664 135.1 169.114 127.75 169.014 119.5C169.114 111.05 170.689 103.625 173.739 97.225C176.839 90.775 181.264 85.75 187.014 82.15C192.764 78.55 199.689 76.75 207.789 76.75C216.339 76.75 223.689 78.85 229.839 83.05C236.039 87.25 240.189 93 242.289 100.3L229.089 104.275C227.389 99.575 224.614 95.925 220.764 93.325C216.964 90.725 212.589 89.425 207.639 89.425C202.089 89.425 197.514 90.725 193.914 93.325C190.314 95.875 187.639 99.425 185.889 103.975C184.139 108.475 183.239 113.65 183.189 119.5C183.289 128.5 185.364 135.775 189.414 141.325C193.514 146.825 199.589 149.575 207.639 149.575C212.939 149.575 217.339 148.375 220.839 145.975C224.339 143.525 226.989 140 228.789 135.4L242.289 138.925C239.489 146.475 235.114 152.25 229.164 156.25C223.214 160.25 216.039 162.25 207.639 162.25ZM256.898 160V49.75H270.248V160H256.898ZM327.852 162.25C319.902 162.25 312.952 160.5 307.002 157C301.102 153.45 296.502 148.525 293.202 142.225C289.902 135.875 288.252 128.475 288.252 120.025C288.252 111.175 289.877 103.525 293.127 97.075C296.377 90.575 300.902 85.575 306.702 82.075C312.552 78.525 319.402 76.75 327.252 76.75C335.402 76.75 342.327 78.625 348.027 82.375C353.777 86.125 358.077 91.475 360.927 98.425C363.827 105.375 365.077 113.65 364.677 123.25H351.177V118.45C351.027 108.5 349.002 101.075 345.102 96.175C341.202 91.225 335.402 88.75 327.702 88.75C319.452 88.75 313.177 91.4 308.877 96.7C304.577 102 302.427 109.6 302.427 119.5C302.427 129.05 304.577 136.45 308.877 141.7C313.177 146.95 319.302 149.575 327.252 149.575C332.602 149.575 337.252 148.35 341.202 145.9C345.152 143.45 348.252 139.925 350.502 135.325L363.327 139.75C360.177 146.9 355.427 152.45 349.077 156.4C342.777 160.3 335.702 162.25 327.852 162.25ZM297.927 123.25V112.525H357.777V123.25H297.927ZM381.375 160V79H393.3V98.575L391.35 96.025C392.3 93.525 393.525 91.225 395.025 89.125C396.575 87.025 398.3 85.3 400.2 83.95C402.3 82.25 404.675 80.95 407.325 80.05C409.975 79.15 412.675 78.625 415.425 78.475C418.175 78.275 420.75 78.45 423.15 79V91.525C420.35 90.775 417.275 90.575 413.925 90.925C410.575 91.275 407.475 92.5 404.625 94.6C402.025 96.45 400 98.7 398.55 101.35C397.15 104 396.175 106.875 395.625 109.975C395.075 113.025 394.8 116.15 394.8 119.35V160H381.375ZM438.832 64.675V50.875H452.182V64.675H438.832ZM438.832 160V79H452.182V160H438.832ZM509.186 162.25C501.136 162.25 494.186 160.425 488.336 156.775C482.536 153.125 478.061 148.075 474.911 141.625C471.761 135.175 470.186 127.775 470.186 119.425C470.186 110.925 471.786 103.475 474.986 97.075C478.186 90.675 482.711 85.7 488.561 82.15C494.411 78.55 501.286 76.75 509.186 76.75C517.286 76.75 524.261 78.575 530.111 82.225C535.961 85.825 540.436 90.85 543.536 97.3C546.686 103.7 548.261 111.075 548.261 119.425C548.261 127.875 546.686 135.325 543.536 141.775C540.386 148.175 535.886 153.2 530.036 156.85C524.186 160.45 517.236 162.25 509.186 162.25ZM509.186 149.575C517.586 149.575 523.836 146.775 527.936 141.175C532.036 135.575 534.086 128.325 534.086 119.425C534.086 110.275 532.011 103 527.861 97.6C523.711 92.15 517.486 89.425 509.186 89.425C503.536 89.425 498.886 90.7 495.236 93.25C491.586 95.8 488.861 99.325 487.061 103.825C485.261 108.325 484.361 113.525 484.361 119.425C484.361 128.525 486.461 135.825 490.661 141.325C494.861 146.825 501.036 149.575 509.186 149.575ZM628.928 162.25C620.728 162.25 613.753 160.425 608.003 156.775C602.303 153.075 597.953 148 594.953 141.55C591.953 135.1 590.403 127.75 590.303 119.5C590.403 111.05 591.978 103.625 595.028 97.225C598.128 90.775 602.553 85.75 608.303 82.15C614.053 78.55 620.978 76.75 629.078 76.75C637.628 76.75 644.978 78.85 651.128 83.05C657.328 87.25 661.478 93 663.578 100.3L650.378 104.275C648.678 99.575 645.903 95.925 642.053 93.325C638.253 90.725 633.878 89.425 628.928 89.425C623.378 89.425 618.803 90.725 615.203 93.325C611.603 95.875 608.928 99.425 607.178 103.975C605.428 108.475 604.528 113.65 604.478 119.5C604.578 128.5 606.653 135.775 610.703 141.325C614.803 146.825 620.878 149.575 628.928 149.575C634.228 149.575 638.628 148.375 642.128 145.975C645.628 143.525 648.278 140 650.078 135.4L663.578 138.925C660.778 146.475 656.403 152.25 650.453 156.25C644.503 160.25 637.328 162.25 628.928 162.25ZM711.188 162.25C703.138 162.25 696.188 160.425 690.338 156.775C684.538 153.125 680.063 148.075 676.913 141.625C673.763 135.175 672.188 127.775 672.188 119.425C672.188 110.925 673.788 103.475 676.988 97.075C680.188 90.675 684.713 85.7 690.563 82.15C696.413 78.55 703.288 76.75 711.188 76.75C719.288 76.75 726.263 78.575 732.113 82.225C737.963 85.825 742.438 90.85 745.538 97.3C748.688 103.7 750.263 111.075 750.263 119.425C750.263 127.875 748.688 135.325 745.538 141.775C742.388 148.175 737.888 153.2 732.038 156.85C726.188 160.45 719.238 162.25 711.188 162.25ZM711.188 149.575C719.588 149.575 725.838 146.775 729.938 141.175C734.038 135.575 736.088 128.325 736.088 119.425C736.088 110.275 734.013 103 729.863 97.6C725.713 92.15 719.488 89.425 711.188 89.425C705.538 89.425 700.888 90.7 697.238 93.25C693.588 95.8 690.863 99.325 689.063 103.825C687.263 108.325 686.363 113.525 686.363 119.425C686.363 128.525 688.463 135.825 692.663 141.325C696.863 146.825 703.038 149.575 711.188 149.575ZM798.575 162.25C791.025 162.25 784.55 160.375 779.15 156.625C773.75 152.825 769.575 147.7 766.625 141.25C763.725 134.8 762.275 127.525 762.275 119.425C762.275 111.325 763.725 104.05 766.625 97.6C769.575 91.15 773.75 86.075 779.15 82.375C784.55 78.625 791 76.75 798.5 76.75C806.15 76.75 812.575 78.6 817.775 82.3C822.975 86 826.9 91.075 829.55 97.525C832.25 103.975 833.6 111.275 833.6 119.425C833.6 127.475 832.25 134.75 829.55 141.25C826.9 147.7 822.975 152.825 817.775 156.625C812.575 160.375 806.175 162.25 798.575 162.25ZM800.225 150.025C805.675 150.025 810.15 148.725 813.65 146.125C817.15 143.475 819.725 139.85 821.375 135.25C823.075 130.6 823.925 125.325 823.925 119.425C823.925 113.425 823.075 108.15 821.375 103.6C819.725 99 817.175 95.425 813.725 92.875C810.275 90.275 805.9 88.975 800.6 88.975C795.1 88.975 790.55 90.325 786.95 93.025C783.4 95.725 780.75 99.375 779 103.975C777.3 108.575 776.45 113.725 776.45 119.425C776.45 125.175 777.325 130.375 779.075 135.025C780.825 139.625 783.45 143.275 786.95 145.975C790.5 148.675 794.925 150.025 800.225 150.025ZM823.925 160V100.375H822.425V52H835.85V160H823.925ZM891.963 162.25C884.013 162.25 877.063 160.5 871.113 157C865.213 153.45 860.613 148.525 857.313 142.225C854.013 135.875 852.363 128.475 852.363 120.025C852.363 111.175 853.988 103.525 857.238 97.075C860.488 90.575 865.013 85.575 870.813 82.075C876.663 78.525 883.513 76.75 891.363 76.75C899.513 76.75 906.438 78.625 912.138 82.375C917.888 86.125 922.188 91.475 925.038 98.425C927.938 105.375 929.188 113.65 928.788 123.25H915.288V118.45C915.138 108.5 913.113 101.075 909.213 96.175C905.313 91.225 899.513 88.75 891.813 88.75C883.563 88.75 877.288 91.4 872.988 96.7C868.688 102 866.538 109.6 866.538 119.5C866.538 129.05 868.688 136.45 872.988 141.7C877.288 146.95 883.413 149.575 891.363 149.575C896.713 149.575 901.363 148.35 905.313 145.9C909.263 143.45 912.363 139.925 914.613 135.325L927.438 139.75C924.288 146.9 919.538 152.45 913.188 156.4C906.888 160.3 899.813 162.25 891.963 162.25ZM862.038 123.25V112.525H921.888V123.25H862.038Z" fill="white"/>
<rect x="0.316368" y="48.3164" width="143.367" height="143.367" rx="23.6836" fill="#DFEAEC" stroke="black" stroke-width="0.632736"/>
<path d="M65.1286 135.679C66.6771 131.771 70.4548 129.204 74.6585 129.204H75.9825C80.1862 129.204 83.9639 131.771 85.5125 135.679L96.2701 162.828C98.9364 169.557 93.978 176.855 86.7401 176.855H63.9009C56.663 176.855 51.7046 169.557 54.3709 162.828L65.1286 135.679Z" fill="#005046"/>
<path d="M80.4267 64.3712C86.9752 64.3405 90.1057 73.059 85.8006 77.9935C81.4869 82.9377 78.4692 88.0709 80.684 91.2284C82.1255 93.2835 84.598 94.5185 87.4447 95.2254C93.5973 96.7533 98.2089 104.598 93.9616 109.305C87.9128 116.007 81.1843 122.383 77.3631 122.383C62.4179 122.383 51.4983 103.42 51.4983 88.0171C51.4983 72.6141 54.2218 64.4123 69.1669 64.4123C71.0809 64.4123 75.4899 64.3943 80.4267 64.3712Z" fill="#005046"/>
</svg>
